<svg width="36" height="36" viewBox="0 0 36 36" fill="none" xmlns="http://www.w3.org/2000/svg">
<path fill-rule="evenodd" clip-rule="evenodd" d="M19.8 28.8C21.7882 28.8 23.4 30.4118 23.4 32.4C23.4 34.3882 21.7882 36 19.8 36C17.8118 36 16.2 34.3882 16.2 32.4C16.2 30.4118 17.8118 28.8 19.8 28.8ZM8.53423 23.4C11.0195 23.4 13.0342 25.4147 13.0342 27.9C13.0342 30.3853 11.0195 32.4 8.53423 32.4C6.04895 32.4 4.03423 30.3853 4.03423 27.9C4.03423 25.4147 6.04895 23.4 8.53423 23.4ZM29.3748 24.3C31.363 24.3 32.9748 25.9118 32.9748 27.9C32.9748 29.8882 31.363 31.5 29.3748 31.5C27.3866 31.5 25.7748 29.8882 25.7748 27.9C25.7748 25.9118 27.3866 24.3 29.3748 24.3ZM33.3 16.7734C34.7912 16.7734 36 17.9822 36 19.4734C36 20.9645 34.7912 22.1734 33.3 22.1734C31.8088 22.1734 30.6 20.9645 30.6 19.4734C30.6 17.9822 31.8088 16.7734 33.3 16.7734ZM4.5 10.8C6.98528 10.8 9 12.8147 9 15.3C9 17.7853 6.98528 19.8 4.5 19.8C2.01472 19.8 0 17.7853 0 15.3C0 12.8147 2.01472 10.8 4.5 10.8ZM32.0144 9.37304C33.0085 9.37304 33.8144 10.1789 33.8144 11.173C33.8144 12.1672 33.0085 12.973 32.0144 12.973C31.0203 12.973 30.2144 12.1672 30.2144 11.173C30.2144 10.1789 31.0203 9.37304 32.0144 9.37304ZM14.4 0C17.3823 0 19.8 2.41766 19.8 5.4C19.8 8.38234 17.3823 10.8 14.4 10.8C11.4177 10.8 9 8.38234 9 5.4C9 2.41766 11.4177 0 14.4 0ZM27.9 5.4C28.3971 5.4 28.8 5.80294 28.8 6.3C28.8 6.79706 28.3971 7.2 27.9 7.2C27.4029 7.2 27 6.79706 27 6.3C27 5.80294 27.4029 5.4 27.9 5.4Z" fill="#096FFA"/>
</svg>
